<svg width="50" height="50" viewBox="0 0 50 50" fill="none" xmlns="http://www.w3.org/2000/svg">
<g clip-path="url(#clip0_23_2)">
<path d="M24.8516 35H20.8086V23.7695C20.8086 22.3503 20.5417 21.3672 20.0078 20.8203C19.474 20.2734 18.6992 20 17.6836 20C16.1862 20 14.9622 20.6055 14.0117 21.8164C13.0742 23.0273 12.6055 24.7005 12.6055 26.8359V35H8.5625V16.7969H12.6055V21.3672C13.0091 19.7917 13.7578 18.5677 14.8516 17.6953C15.9453 16.8099 17.293 16.3672 18.8945 16.3672C20.7565 16.3672 22.2148 16.9727 23.2695 18.1836C24.3242 19.3945 24.8516 21.2565 24.8516 23.7695V35Z" fill="#555555"/>
<path d="M41.957 37.712C41.7487 39.6261 40.9935 41.1495 39.6914 42.2823C38.4023 43.4021 36.7878 43.962 34.8477 43.962C33.7799 43.962 32.8034 43.7863 31.918 43.4347C31.0326 43.0831 30.2773 42.5948 29.6523 41.9698C29.0273 41.3448 28.5391 40.5962 28.1875 39.7238C27.849 38.8383 27.6797 37.8748 27.6797 36.8331V28.962H23.5586V25.3097H27.6797V18.0245H31.7227V25.3097H39.3594V28.962H31.7227V36.8331C31.7227 38.005 32.0091 38.8774 32.582 39.4503C33.1549 40.0232 33.9102 40.3097 34.8477 40.3097C35.9935 40.3097 36.8464 39.9777 37.4062 39.3136C37.9661 38.6495 38.2982 37.8488 38.4023 36.9113L41.957 37.712Z" fill="#555555"/>
</g>
<defs>
<clipPath id="clip0_23_2">
<rect width="50" height="50" fill="white"/>
</clipPath>
</defs>
</svg>
