<svg width="262" height="219" viewBox="0 0 262 219" fill="none" xmlns="http://www.w3.org/2000/svg">
<path d="M154 1H174V219H154V1Z" fill="#ACCAE3"/>
<rect x="10" y="185" width="250" height="10" fill="#ACCAE3"/>
<rect x="10" y="151" width="250" height="5" fill="#ACCAE3"/>
<rect x="102" y="125" width="7" height="60" fill="#ACCAE3"/>
<rect x="10" y="125" width="250" height="10" fill="#ACCAE3"/>
<rect x="23.4256" y="127.41" width="8.46373" height="57.6081" fill="#ACCAE3"/>
<rect width="5" height="23.2493" transform="matrix(0.996597 -0.0824254 0.0921531 0.995745 129.113 129.92)" fill="#ACCAE3"/>
<rect width="5" height="25" transform="matrix(0.998775 0.0494827 -0.0553528 0.998467 129.985 101.008)" fill="#ACCAE3"/>
<rect x="130" y="99" width="87" height="10" fill="#ACCAE3"/>
<rect width="262" height="10" transform="matrix(0.992344 -0.123504 0.137933 0.990442 0 72.1245)" fill="#ACCAE3"/>
<rect width="8.5" height="56.8671" transform="matrix(0.992139 -0.125144 0.139758 0.990186 15.1194 72.6967)" fill="#ACCAE3"/>
<rect width="7" height="126" transform="matrix(0.992139 -0.125144 0.139758 0.990186 58.1879 1)" fill="#ACCAE3"/>
<circle cx="164" cy="188" r="12.5" fill="#F9F0E6" stroke="#ACCAE3" stroke-width="7"/>
<rect x="210" y="1" width="8" height="124" fill="#ACCAE3"/>
<rect x="246" y="151" width="3" height="41" fill="#ACCAE3"/>
</svg>
